<mxfile host="app.diagrams.net" agent="Mozilla/5.0 (Macintosh; Intel Mac OS X 10_15_7) AppleWebKit/605.1.15 (KHTML, like Gecko) Version/18.1 Safari/605.1.15" version="26.0.10">
  <diagram name="Page-1" id="EATrVy1hBsk_Wb-rNg2T">
    <mxGraphModel dx="1158" dy="784" grid="1" gridSize="10" guides="1" tooltips="1" connect="1" arrows="1" fold="1" page="1" pageScale="1" pageWidth="850" pageHeight="1100" math="0" shadow="0">
      <root>
        <mxCell id="0" />
        <mxCell id="1" parent="0" />
        <mxCell id="LFpNbYzianmv_HbRzkOO-3" value="Reshape" style="edgeStyle=orthogonalEdgeStyle;rounded=0;orthogonalLoop=1;jettySize=auto;html=1;" edge="1" parent="1" source="LFpNbYzianmv_HbRzkOO-1" target="LFpNbYzianmv_HbRzkOO-2">
          <mxGeometry relative="1" as="geometry" />
        </mxCell>
        <mxCell id="LFpNbYzianmv_HbRzkOO-1" value="raw data scenario 0 (s0)" style="rounded=0;whiteSpace=wrap;html=1;fillColor=#dae8fc;strokeColor=#6c8ebf;" vertex="1" parent="1">
          <mxGeometry x="200" y="250" width="120" height="60" as="geometry" />
        </mxCell>
        <mxCell id="LFpNbYzianmv_HbRzkOO-5" value="" style="edgeStyle=orthogonalEdgeStyle;rounded=0;orthogonalLoop=1;jettySize=auto;html=1;" edge="1" parent="1" source="LFpNbYzianmv_HbRzkOO-2" target="LFpNbYzianmv_HbRzkOO-4">
          <mxGeometry relative="1" as="geometry" />
        </mxCell>
        <mxCell id="LFpNbYzianmv_HbRzkOO-2" value="(v, n, t)" style="rounded=0;whiteSpace=wrap;html=1;fillColor=#dae8fc;strokeColor=#6c8ebf;" vertex="1" parent="1">
          <mxGeometry x="400" y="250" width="120" height="60" as="geometry" />
        </mxCell>
        <mxCell id="LFpNbYzianmv_HbRzkOO-7" value="" style="edgeStyle=orthogonalEdgeStyle;rounded=0;orthogonalLoop=1;jettySize=auto;html=1;" edge="1" parent="1" source="LFpNbYzianmv_HbRzkOO-4" target="LFpNbYzianmv_HbRzkOO-6">
          <mxGeometry relative="1" as="geometry" />
        </mxCell>
        <mxCell id="LFpNbYzianmv_HbRzkOO-4" value="(v*, n, t)" style="rounded=0;whiteSpace=wrap;html=1;fillColor=#dae8fc;strokeColor=#6c8ebf;" vertex="1" parent="1">
          <mxGeometry x="570" y="250" width="120" height="60" as="geometry" />
        </mxCell>
        <mxCell id="LFpNbYzianmv_HbRzkOO-17" value="" style="edgeStyle=orthogonalEdgeStyle;rounded=0;orthogonalLoop=1;jettySize=auto;html=1;" edge="1" parent="1" source="LFpNbYzianmv_HbRzkOO-6" target="LFpNbYzianmv_HbRzkOO-15">
          <mxGeometry relative="1" as="geometry" />
        </mxCell>
        <mxCell id="LFpNbYzianmv_HbRzkOO-6" value="For each t:&lt;div&gt;s0_t = (v, n)&lt;/div&gt;" style="rounded=0;whiteSpace=wrap;html=1;fillColor=#dae8fc;strokeColor=#6c8ebf;" vertex="1" parent="1">
          <mxGeometry x="730" y="250" width="120" height="60" as="geometry" />
        </mxCell>
        <mxCell id="LFpNbYzianmv_HbRzkOO-8" value="Reshape" style="edgeStyle=orthogonalEdgeStyle;rounded=0;orthogonalLoop=1;jettySize=auto;html=1;" edge="1" parent="1" source="LFpNbYzianmv_HbRzkOO-9" target="LFpNbYzianmv_HbRzkOO-11">
          <mxGeometry relative="1" as="geometry" />
        </mxCell>
        <mxCell id="LFpNbYzianmv_HbRzkOO-9" value="raw data scenario 1 (s1)" style="rounded=0;whiteSpace=wrap;html=1;fillColor=#f8cecc;strokeColor=#b85450;" vertex="1" parent="1">
          <mxGeometry x="200" y="360" width="120" height="60" as="geometry" />
        </mxCell>
        <mxCell id="LFpNbYzianmv_HbRzkOO-10" value="" style="edgeStyle=orthogonalEdgeStyle;rounded=0;orthogonalLoop=1;jettySize=auto;html=1;" edge="1" parent="1" source="LFpNbYzianmv_HbRzkOO-11" target="LFpNbYzianmv_HbRzkOO-13">
          <mxGeometry relative="1" as="geometry" />
        </mxCell>
        <mxCell id="LFpNbYzianmv_HbRzkOO-11" value="(v, n, t)" style="rounded=0;whiteSpace=wrap;html=1;fillColor=#f8cecc;strokeColor=#b85450;" vertex="1" parent="1">
          <mxGeometry x="400" y="360" width="120" height="60" as="geometry" />
        </mxCell>
        <mxCell id="LFpNbYzianmv_HbRzkOO-12" value="" style="edgeStyle=orthogonalEdgeStyle;rounded=0;orthogonalLoop=1;jettySize=auto;html=1;" edge="1" parent="1" source="LFpNbYzianmv_HbRzkOO-13" target="LFpNbYzianmv_HbRzkOO-14">
          <mxGeometry relative="1" as="geometry" />
        </mxCell>
        <mxCell id="LFpNbYzianmv_HbRzkOO-13" value="(v*, n, t)" style="rounded=0;whiteSpace=wrap;html=1;fillColor=#f8cecc;strokeColor=#b85450;" vertex="1" parent="1">
          <mxGeometry x="570" y="360" width="120" height="60" as="geometry" />
        </mxCell>
        <mxCell id="LFpNbYzianmv_HbRzkOO-16" value="" style="edgeStyle=orthogonalEdgeStyle;rounded=0;orthogonalLoop=1;jettySize=auto;html=1;" edge="1" parent="1" source="LFpNbYzianmv_HbRzkOO-14" target="LFpNbYzianmv_HbRzkOO-15">
          <mxGeometry relative="1" as="geometry" />
        </mxCell>
        <mxCell id="LFpNbYzianmv_HbRzkOO-14" value="For each t:&lt;div&gt;s1_t = (v, n)&lt;/div&gt;" style="rounded=0;whiteSpace=wrap;html=1;fillColor=#f8cecc;strokeColor=#b85450;" vertex="1" parent="1">
          <mxGeometry x="730" y="360" width="120" height="60" as="geometry" />
        </mxCell>
        <mxCell id="LFpNbYzianmv_HbRzkOO-19" value="YES" style="edgeStyle=orthogonalEdgeStyle;rounded=0;orthogonalLoop=1;jettySize=auto;html=1;" edge="1" parent="1" source="LFpNbYzianmv_HbRzkOO-15" target="LFpNbYzianmv_HbRzkOO-18">
          <mxGeometry relative="1" as="geometry" />
        </mxCell>
        <mxCell id="LFpNbYzianmv_HbRzkOO-21" value="NO" style="edgeStyle=orthogonalEdgeStyle;rounded=0;orthogonalLoop=1;jettySize=auto;html=1;" edge="1" parent="1" source="LFpNbYzianmv_HbRzkOO-15">
          <mxGeometry relative="1" as="geometry">
            <mxPoint x="930" y="460" as="targetPoint" />
          </mxGeometry>
        </mxCell>
        <mxCell id="LFpNbYzianmv_HbRzkOO-15" value="Change?" style="rhombus;whiteSpace=wrap;html=1;rounded=0;" vertex="1" parent="1">
          <mxGeometry x="890" y="290" width="80" height="80" as="geometry" />
        </mxCell>
        <mxCell id="LFpNbYzianmv_HbRzkOO-30" value="" style="edgeStyle=orthogonalEdgeStyle;rounded=0;orthogonalLoop=1;jettySize=auto;html=1;" edge="1" parent="1" source="LFpNbYzianmv_HbRzkOO-18" target="LFpNbYzianmv_HbRzkOO-27">
          <mxGeometry relative="1" as="geometry" />
        </mxCell>
        <mxCell id="LFpNbYzianmv_HbRzkOO-18" value="Concatenate&lt;div&gt;&lt;div&gt;s0_t[:, :T]&lt;/div&gt;&lt;div&gt;s1_t[:, T:]&lt;/div&gt;&lt;/div&gt;" style="whiteSpace=wrap;html=1;rounded=0;fillColor=#e1d5e7;strokeColor=#9673a6;" vertex="1" parent="1">
          <mxGeometry x="1030" y="295" width="130" height="70" as="geometry" />
        </mxCell>
        <mxCell id="LFpNbYzianmv_HbRzkOO-23" value="v= num of variables&lt;div&gt;n= num of simulation runs/days&lt;/div&gt;&lt;div&gt;t= num of timechunks&lt;/div&gt;" style="text;html=1;align=left;verticalAlign=middle;whiteSpace=wrap;rounded=0;" vertex="1" parent="1">
          <mxGeometry x="400" y="440" width="130" height="30" as="geometry" />
        </mxCell>
        <mxCell id="LFpNbYzianmv_HbRzkOO-24" value="v* = corrected number of variables, filtering only the segments we are interested in + extra filtering, such as removing truck related variables from Via di Francia" style="text;html=1;align=left;verticalAlign=middle;whiteSpace=wrap;rounded=0;" vertex="1" parent="1">
          <mxGeometry x="560" y="460" width="150" height="30" as="geometry" />
        </mxCell>
        <mxCell id="LFpNbYzianmv_HbRzkOO-25" value="T =&amp;nbsp;&lt;span style=&quot;text-align: center;&quot;&gt;the day the change happened, T &amp;lt; n&lt;/span&gt;" style="text;html=1;align=left;verticalAlign=middle;whiteSpace=wrap;rounded=0;" vertex="1" parent="1">
          <mxGeometry x="1030" y="375" width="130" height="30" as="geometry" />
        </mxCell>
        <mxCell id="LFpNbYzianmv_HbRzkOO-29" value="" style="group" vertex="1" connectable="0" parent="1">
          <mxGeometry x="1190" y="320" width="120" height="20" as="geometry" />
        </mxCell>
        <mxCell id="LFpNbYzianmv_HbRzkOO-27" value="s0_t" style="rounded=0;whiteSpace=wrap;html=1;fillColor=#dae8fc;strokeColor=#6c8ebf;" vertex="1" parent="LFpNbYzianmv_HbRzkOO-29">
          <mxGeometry width="70" height="20" as="geometry" />
        </mxCell>
        <mxCell id="LFpNbYzianmv_HbRzkOO-28" value="s1_t" style="rounded=0;whiteSpace=wrap;html=1;fillColor=#f8cecc;strokeColor=#b85450;" vertex="1" parent="LFpNbYzianmv_HbRzkOO-29">
          <mxGeometry x="70" width="50" height="20" as="geometry" />
        </mxCell>
        <mxCell id="LFpNbYzianmv_HbRzkOO-31" value="s0_t" style="rounded=0;whiteSpace=wrap;html=1;fillColor=#dae8fc;strokeColor=#6c8ebf;" vertex="1" parent="1">
          <mxGeometry x="870" y="460" width="70" height="20" as="geometry" />
        </mxCell>
        <mxCell id="LFpNbYzianmv_HbRzkOO-32" value="s0_t" style="rounded=0;whiteSpace=wrap;html=1;fillColor=#dae8fc;strokeColor=#6c8ebf;" vertex="1" parent="1">
          <mxGeometry x="940" y="460" width="50" height="20" as="geometry" />
        </mxCell>
        <mxCell id="LFpNbYzianmv_HbRzkOO-33" value="T" style="text;html=1;align=center;verticalAlign=middle;whiteSpace=wrap;rounded=0;" vertex="1" parent="1">
          <mxGeometry x="910" y="480" width="60" height="20" as="geometry" />
        </mxCell>
        <mxCell id="LFpNbYzianmv_HbRzkOO-34" value="T" style="text;html=1;align=center;verticalAlign=middle;whiteSpace=wrap;rounded=0;" vertex="1" parent="1">
          <mxGeometry x="1235" y="340" width="50" height="20" as="geometry" />
        </mxCell>
      </root>
    </mxGraphModel>
  </diagram>
</mxfile>
